<?xml version="1.0" encoding="UTF-8"?>
<!-- Generator: visioncortex VTracer 0.6.4 -->
<svg version="1.1" xmlns="http://www.w3.org/2000/svg" width="512" height="512">
<path d="M0 0 C13.76 3.58 26.51 9.58 38 18 C38 15.69 38 13.38 38 11 C47.42 12.19 54.74 21.43 61 28 C61.66 25.69 62.32 23.38 63 21 C71.1 25.64 77.21 31.81 82.69 39.31 C83.12 39.87 83.55 40.43 84 41 C84.33 41 84.66 41 85 41 C85.99 38.03 85.99 38.03 87 35 C96.69 39.46 101.66 49.26 107 58 C107.99 55.69 108.98 53.38 110 51 C118.32 54.35 122.46 65.33 126 73 C126.99 71.68 127.98 70.36 129 69 C137.91 72.73 141.42 84.78 145 93 C146.32 92.34 147.64 91.68 149 91 C149.88 92.19 150.72 93.41 151.56 94.62 C152.04 95.3 152.51 95.97 153 96.66 C154.74 100.74 153.38 104.01 151.84 108 C150.95 110 150.05 112 149.16 114 C145.96 122.3 146.01 131.65 149 140 C150 142.15 151.06 144.25 152.2 146.34 C153 148 153 148 153 150 C153.66 150 154.32 150 155 150 C155 150.99 155 151.98 155 153 C152.75 154.81 152.75 154.81 150 156 C146.26 154.73 143.91 152.15 141.19 149.38 C139.97 148.15 139.97 148.15 138.73 146.9 C136.69 144.73 134.74 142.55 132.8 140.29 C128.45 135.28 123.73 130.66 119 126 C109.37 116.51 109.37 116.51 105.56 112.06 C101.01 106.75 95.98 101.91 91 97 C85.39 91.47 79.86 85.95 74.73 79.96 C71.35 76.14 67.69 72.59 64.06 69 C63.28 68.23 62.5 67.45 61.7 66.65 C59.8 64.77 57.9 62.88 56 61 C59.4 65.65 62.86 70.1 66.81 74.31 C70.94 78.79 74.83 83.38 78.65 88.11 C85.16 96.12 91.89 103.92 98.83 111.55 C101.07 114.08 103.2 116.68 105.31 119.31 C109.72 124.77 114.44 129.88 119.22 135 C121.95 137.93 124.6 140.93 127.21 143.96 C130.31 147.49 133.49 150.93 136.67 154.39 C138.87 156.86 140.96 159.39 143 162 C141.68 165.44 140.18 168.7 138.46 171.96 C137.97 172.9 137.47 173.84 136.96 174.81 C136.44 175.8 135.91 176.79 135.38 177.81 C134.29 179.88 133.21 181.95 132.12 184.02 C131.59 185.03 131.06 186.05 130.52 187.1 C128.45 191.05 126.4 195.02 124.38 199 C124.06 199.61 123.74 200.23 123.41 200.86 C121.42 204.82 120.17 208.74 119 213 C118.34 213.02 117.68 213.05 117 213.07 C110.1 213.31 103.21 213.55 96.31 213.8 C93.74 213.89 91.17 213.98 88.6 214.07 C84.9 214.2 81.2 214.33 77.5 214.46 C76.35 214.5 75.21 214.54 74.03 214.58 C72.95 214.62 71.87 214.66 70.75 214.7 C69.81 214.74 68.86 214.77 67.89 214.8 C64.58 215.03 61.29 215.53 58 216 C77.8 216.99 97.6 217.98 118 219 C118.99 222.96 119.98 226.92 121 231 C125.75 239.25 130.18 243.54 139 247 C138.67 247.66 138.34 248.32 138 249 C135.87 249.69 135.87 249.69 133.09 250.29 C131.61 250.62 131.61 250.62 130.09 250.95 C129.05 251.17 128.01 251.4 126.94 251.62 C125.89 251.85 124.85 252.08 123.77 252.32 C121.18 252.89 118.59 253.45 116 254 C115.67 252.68 115.34 251.36 115 250 C113.99 250.45 112.98 250.91 111.94 251.38 C105.58 253.8 98.72 254.26 92 255 C92.99 252.03 92.99 252.03 94 249 C93.42 249.2 92.83 249.41 92.23 249.62 C85.49 251.84 79.07 252.65 72 253 C72.5 250.03 72.5 250.03 73 247 C72.19 247.16 71.39 247.33 70.55 247.5 C66.37 248.09 62.34 248.11 58.12 248.06 C57.34 248.06 56.56 248.05 55.75 248.05 C53.83 248.04 51.92 248.02 50 248 C50.66 246.35 51.32 244.7 52 243 C51.17 243.01 50.33 243.02 49.47 243.04 C42.88 243.09 36.53 242.89 30 242 C31.88 237.12 31.88 237.12 33 236 C31.74 235.87 30.47 235.73 29.17 235.6 C27.51 235.42 25.85 235.24 24.19 235.06 C23.35 234.98 22.52 234.89 21.66 234.8 C20.86 234.71 20.06 234.62 19.23 234.54 C18.49 234.46 17.75 234.38 16.99 234.3 C15 234 15 234 12 233 C12.99 231.02 12.99 231.02 14 229 C13.04 228.56 12.09 228.13 11.11 227.68 C3.24 224.06 -4.46 220.28 -12 216 C-11 213 -11 213 -9.47 211.97 C-8.49 211.52 -8.49 211.52 -7.5 211.06 C-6.78 210.73 -6.06 210.39 -5.32 210.04 C-4.56 209.7 -3.79 209.35 -3 209 C-2.23 208.65 -1.46 208.29 -0.66 207.93 C4.47 205.6 9.58 203.58 15 202 C13.52 201.01 13.52 201.01 12 200 C12 199.34 12 198.68 12 198 C18.95 195.95 25.78 195.42 33 195 C32.5 194.55 32.01 194.09 31.5 193.62 C30 192 30 192 30 190 C32.45 188.77 34.05 188.89 36.79 188.9 C37.73 188.91 38.67 188.91 39.64 188.91 C40.63 188.92 41.61 188.93 42.62 188.94 C43.62 188.94 44.61 188.95 45.63 188.95 C48.09 188.96 50.54 188.98 53 189 C52.34 188.38 51.68 187.76 51 187.12 C49 185 49 185 49 183 C65.89 182.63 65.89 182.63 73 185 C72.67 183.02 72.34 181.04 72 179 C77.4 178.78 81.81 179.51 86.94 181 C87.62 181.19 88.31 181.38 89.01 181.58 C90.68 182.04 92.34 182.52 94 183 C93.5 180.52 93.5 180.52 93 178 C97.78 177.9 102.28 178.23 107 179 C106.33 178.59 105.67 178.18 104.98 177.75 C95.97 172.1 86.85 166.21 79 159 C79 158.34 79 157.68 79 157 C80.65 156.67 82.3 156.34 84 156 C83.51 155.71 83.01 155.43 82.51 155.13 C62.52 143.45 62.52 143.45 56 136 C56 135.34 56 134.68 56 134 C58.64 133.67 61.28 133.34 64 133 C63.18 132.47 62.36 131.93 61.51 131.38 C53.95 126.38 46.72 121.15 41 114 C41 113.01 41 112.02 41 111 C43.64 110.67 46.28 110.34 49 110 C47.93 109.13 47.93 109.13 46.84 108.24 C44.85 106.62 42.87 105 40.89 103.37 C39.24 102.01 37.57 100.67 35.89 99.35 C31.48 95.82 28.72 91.93 26 87 C27.97 85.03 31.35 85.34 34 85 C32.82 83.97 32.82 83.97 31.62 82.91 C18.9 71.59 18.9 71.59 15 65 C15 64.01 15 63.02 15 62 C18.47 61.5 18.47 61.5 22 61 C21.43 60.41 20.86 59.81 20.28 59.2 C6 43.87 6 43.87 6 38 C8.97 37.5 8.97 37.5 12 37 C11.46 35.82 10.91 34.63 10.36 33.41 C5.32 22.34 0.99 12.24 0 0 Z " fill="#FFFFFF" transform="translate(41,142)"/>
<path d="M0 0 C3.65 0.54 3.65 0.54 5.17 2.54 C5.48 3.2 5.79 3.87 6.11 4.55 C6.47 5.3 6.83 6.06 7.2 6.83 C7.75 8.06 7.75 8.06 8.31 9.31 C8.7 10.15 9.09 10.99 9.48 11.85 C13.62 21.01 16.87 30.46 20 40 C20.62 39.34 21.24 38.68 21.88 38 C24 36 24 36 26 36 C28.91 46.35 29.65 56.3 30 67 C32.31 65.35 34.62 63.7 37 62 C41.54 72.43 40.11 84.83 40 96 C42.31 94.35 44.62 92.7 47 91 C48.95 94.28 49.26 96.75 49.27 100.54 C49.27 102.15 49.27 102.15 49.27 103.8 C49.27 104.92 49.26 106.04 49.25 107.19 C49.26 108.84 49.26 108.84 49.27 110.52 C49.26 116.99 48.67 122.74 47 129 C47.83 128.46 47.83 128.46 48.68 127.91 C49.77 127.21 49.77 127.21 50.88 126.5 C51.95 125.8 51.95 125.8 53.05 125.09 C55 124 55 124 57 124 C57.66 136.17 55.69 147.16 53 159 C56.96 158.01 56.96 158.01 61 157 C61.2 163.67 60.52 169.62 59.12 176.12 C58.95 176.98 58.78 177.83 58.6 178.71 C57.6 183.55 56.42 188.27 55 193 C56.32 193 57.64 193 59 193 C59.18 203.56 59.18 203.56 58 208 C57.34 208 56.68 208 56 208 C55.69 207.14 55.69 207.14 55.38 206.26 C51.69 196.07 48.12 186.25 42.25 177.08 C41 175 41 175 41 173 C40.34 173 39.68 173 39 173 C37.95 171.85 36.96 170.66 36 169.44 C28.05 160.14 17.24 154.06 5 153 C4.05 145.55 3.71 138.15 3.46 130.65 C3.42 129.4 3.38 128.15 3.33 126.86 C3.22 123.56 3.11 120.26 3 116.96 C2.89 113.58 2.78 110.2 2.66 106.82 C2.44 100.21 2.22 93.61 2 87 C0.72 108.66 -0.38 130.31 -1 152 C-2.05 152.3 -3.09 152.59 -4.17 152.9 C-20.58 157.62 -32.67 165.5 -41.16 180.77 C-45.62 189.21 -49.05 197.93 -52 207 C-52.99 206.67 -53.98 206.34 -55 206 C-55.33 201.71 -55.66 197.42 -56 193 C-54.35 193 -52.7 193 -51 193 C-51.45 191.92 -51.9 190.84 -52.36 189.73 C-54.37 184.38 -55.26 178.93 -56.19 173.31 C-56.36 172.29 -56.54 171.27 -56.72 170.22 C-57.48 165.75 -58.1 161.55 -58 157 C-54.64 157.56 -52.01 158.42 -49 160 C-49.28 158.94 -49.55 157.87 -49.84 156.77 C-55.51 134.33 -55.51 134.33 -53 124 C-50.03 125.12 -47.67 126.22 -45 128 C-45.05 127.01 -45.05 127.01 -45.11 126 C-46.37 101.81 -46.37 101.81 -45 91 C-41.57 92.2 -39.47 93.36 -37 96 C-36.98 95.33 -36.96 94.65 -36.94 93.96 C-36.84 90.85 -36.73 87.74 -36.62 84.62 C-36.59 83.56 -36.56 82.5 -36.53 81.41 C-36.29 74.75 -35.54 68.48 -34 62 C-30.67 63.55 -28.51 65.31 -26 68 C-25.99 67.35 -25.97 66.7 -25.96 66.03 C-25.88 63.04 -25.78 60.05 -25.69 57.06 C-25.66 56.04 -25.64 55.02 -25.62 53.97 C-25.39 47.49 -24.46 42.01 -22 36 C-20.02 37.32 -18.04 38.64 -16 40 C-15.8 39.36 -15.6 38.71 -15.39 38.05 C-11.22 24.78 -6.74 12.19 0 0 Z " fill="#FFFFFF" transform="translate(254,20)"/>
<path d="M0 0 C-1.54 10.56 -5.19 28.19 -13 36 C-10.69 36.33 -8.38 36.66 -6 37 C-9.11 45.8 -15.87 53.1 -22 60 C-19.69 60.33 -17.38 60.66 -15 61 C-18.25 70.46 -26.34 77.88 -34 84 C-31.36 84.33 -28.72 84.66 -26 85 C-27.43 89.7 -30.17 92.6 -33.62 95.94 C-34.16 96.46 -34.69 96.99 -35.24 97.53 C-39.24 101.42 -43.45 104.77 -48 108 C-48 108.33 -48 108.66 -48 109 C-45.36 109.33 -42.72 109.66 -40 110 C-43.8 118.93 -52.88 124.97 -60.95 129.72 C-61.62 130.14 -62.3 130.57 -63 131 C-63 131.33 -63 131.66 -63 132 C-61.02 132.33 -59.04 132.66 -57 133 C-57.64 138.27 -61.67 140.43 -65.59 143.54 C-71.4 147.86 -77.72 151.42 -84 155 C-82.35 155.33 -80.7 155.66 -79 156 C-80.54 160.26 -83.74 162.45 -87.25 165.06 C-88.09 165.71 -88.09 165.71 -88.95 166.38 C-97.68 173 -97.68 173 -102 173 C-102.34 172.08 -102.68 171.16 -103.03 170.21 C-107.48 158.48 -112.71 147.55 -121 138 C-117.17 129.38 -109.42 122.31 -103.13 115.42 C-100.5 112.43 -98.08 109.3 -95.7 106.11 C-93.64 103.55 -91.33 101.32 -89 99 C-86.88 96.66 -84.81 94.27 -82.75 91.88 C-82.18 91.21 -81.61 90.55 -81.02 89.87 C-76.96 85.15 -73 80.36 -69.08 75.52 C-65.83 71.58 -62.43 67.78 -59 64 C-63.27 67.26 -67.02 70.88 -70.8 74.67 C-71.77 75.63 -71.77 75.63 -72.75 76.62 C-74.11 77.97 -75.46 79.32 -76.81 80.68 C-78.86 82.73 -80.91 84.78 -82.96 86.83 C-84.29 88.15 -85.61 89.47 -86.93 90.8 C-87.53 91.4 -88.14 92 -88.76 92.62 C-92.48 96.36 -95.99 100.23 -99.44 104.22 C-101.21 106.24 -103.06 108.16 -104.97 110.04 C-105.64 110.7 -106.32 111.36 -107.01 112.05 C-107.69 112.71 -108.36 113.38 -109.06 114.06 C-113.53 118.45 -117.82 122.8 -121.67 127.75 C-123 129 -123 129 -126 129 C-126.68 123.96 -127.18 119.3 -126.38 114.25 C-125.8 110.02 -126.48 107.57 -129 104 C-133.18 101.4 -137.21 101.44 -142 102 C-145.84 103.67 -147.59 105.67 -150 109 C-150.66 109 -151.32 109 -152 109 C-153.53 105.69 -154.64 102.64 -155 99 C-153.6 95.49 -151.67 92.68 -149 90 C-148.34 90 -147.68 90 -147 90 C-146.67 90.66 -146.34 91.32 -146 92 C-145.49 90.94 -144.98 89.88 -144.46 88.78 C-136.23 71.79 -136.23 71.79 -132 68 C-131.01 68 -130.02 68 -129 68 C-128.34 69.32 -127.68 70.64 -127 72 C-126.11 70.37 -126.11 70.37 -125.21 68.71 C-124.41 67.27 -123.61 65.82 -122.81 64.38 C-122.43 63.66 -122.04 62.95 -121.64 62.21 C-119.14 57.71 -116.58 53.72 -113 50 C-112.01 50 -111.02 50 -110 50 C-109.01 51.98 -108.02 53.96 -107 56 C-106.52 55.24 -106.04 54.48 -105.54 53.7 C-104.91 52.71 -104.28 51.71 -103.62 50.69 C-103 49.7 -102.37 48.72 -101.73 47.7 C-100.5 45.79 -99.26 43.89 -98 42 C-97.34 42 -96.68 42 -96 42 C-95.77 41.42 -95.55 40.84 -95.31 40.25 C-93.65 37.4 -91.68 35.88 -89 34 C-88.34 34 -87.68 34 -87 34 C-86.34 36.31 -85.68 38.62 -85 41 C-84.61 40.47 -84.22 39.93 -83.82 39.38 C-71.7 23.24 -71.7 23.24 -64 20 C-62.03 21.97 -62.34 25.35 -62 28 C-61.34 27.18 -61.34 27.18 -60.67 26.35 C-55.21 19.86 -49.19 14.51 -42 10 C-41.01 10 -40.02 10 -39 10 C-38.5 12.97 -38.5 12.97 -38 16 C-37.01 15.42 -36.01 14.84 -34.99 14.24 C-9.87 -0.27 -9.87 -0.27 0 0 Z " fill="#FFFFFF" transform="translate(471,143)"/>
<path d="M0 0 C1.3 1.07 2.57 2.18 3.81 3.31 C4.94 4.32 4.94 4.32 6.09 5.35 C18.77 17.31 23.57 33.44 29.05 49.52 C30.6 54.04 32.26 58.48 34.11 62.89 C34.48 63.8 34.86 64.71 35.25 65.64 C35.99 67.39 36.74 69.13 37.5 70.87 C38 72.05 38 72.05 38.5 73.25 C38.8 73.94 39.11 74.63 39.42 75.34 C39.95 77.97 39.23 79.08 37.81 81.31 C33.66 85.99 28.8 88.95 23.25 91.75 C18.17 94.37 14.91 96.88 11.41 101.34 C6.71 107.15 0.46 111.4 -5.7 115.54 C-11.71 119.82 -15.83 124.12 -20.06 130.12 C-20.56 130.82 -21.06 131.51 -21.57 132.22 C-22.78 133.92 -23.99 135.61 -25.19 137.31 C-31.02 135.77 -35.61 132.74 -40.62 129.5 C-41.45 128.98 -42.27 128.46 -43.11 127.92 C-46.83 125.54 -50.49 123.12 -54.04 120.49 C-57.81 117.88 -60.62 116.87 -65.19 117.31 C-75.5 120.42 -80.8 126.78 -85.93 135.94 C-90.23 144.04 -94.06 152.39 -97.95 160.69 C-98.93 162.78 -99.94 164.84 -100.99 166.89 C-104.43 173.86 -102.53 179.29 -100.19 186.31 C-95.54 188.43 -90.97 188.65 -85.95 188.73 C-85.18 188.75 -84.41 188.77 -83.62 188.79 C-81.18 188.84 -78.75 188.89 -76.31 188.94 C-74.65 188.98 -72.99 189.01 -71.34 189.05 C-67.29 189.15 -63.24 189.23 -59.19 189.31 C-58.86 182.05 -58.53 174.79 -58.19 167.31 C-59.79 167.34 -61.39 167.36 -63.04 167.38 C-65.15 167.4 -67.26 167.42 -69.38 167.44 C-70.43 167.45 -71.49 167.47 -72.57 167.49 C-73.59 167.49 -74.62 167.5 -75.67 167.51 C-77.07 167.52 -77.07 167.52 -78.51 167.54 C-81.4 167.29 -83.56 166.52 -86.19 165.31 C-85.31 160.44 -85.31 160.44 -84.19 159.31 C-83.09 159.43 -83.09 159.43 -81.96 159.56 C-78.48 159.79 -76.43 159.69 -73.19 158.31 C-69.44 153.67 -67.35 147.81 -65.19 142.31 C-63.21 142.31 -61.23 142.31 -59.19 142.31 C-58.03 145.18 -58.19 146.33 -59.18 149.33 C-59.66 150.4 -60.13 151.46 -60.62 152.56 C-61.1 153.64 -61.57 154.72 -62.06 155.83 C-62.43 156.65 -62.8 157.47 -63.19 158.31 C-55.32 159.01 -50.06 157.64 -42.92 154.37 C-39.28 152.96 -36.88 153.08 -33.19 154.31 C-30.75 155.88 -30.75 155.88 -29.19 157.31 C-29.5 159.19 -29.5 159.19 -30.19 161.31 C-31.18 161.97 -32.17 162.63 -33.19 163.31 C-32.09 163.33 -30.99 163.34 -29.86 163.36 C-28.41 163.4 -26.95 163.45 -25.5 163.5 C-24.78 163.51 -24.06 163.51 -23.31 163.52 C-19.16 163.69 -17.57 164.01 -14.21 166.7 C-12.19 169.31 -12.19 169.31 -11.56 171.88 C-12.19 174.31 -12.19 174.31 -14.31 176.62 C-17.59 178.55 -19.46 178.66 -23.19 178.31 C-23.23 179.61 -23.27 180.91 -23.31 182.25 C-23.92 187.93 -26.56 192 -30.19 196.31 C-32.92 197.68 -35.12 197.46 -38.18 197.49 C-39.44 197.5 -40.7 197.52 -41.99 197.53 C-43.37 197.54 -44.76 197.54 -46.14 197.55 C-46.83 197.55 -47.53 197.56 -48.24 197.56 C-51.93 197.58 -55.61 197.6 -59.3 197.61 C-63.09 197.62 -66.89 197.65 -70.68 197.69 C-73.61 197.72 -76.54 197.73 -79.46 197.73 C-80.86 197.74 -82.26 197.75 -83.66 197.77 C-92.57 197.88 -98.39 197.75 -105.11 191.53 C-105.57 190.96 -106.03 190.4 -106.5 189.81 C-106.97 189.25 -107.44 188.68 -107.93 188.09 C-110.95 183.82 -111.48 180.78 -111.5 175.5 C-111.52 174.32 -111.53 173.14 -111.55 171.92 C-110.68 163.23 -104.98 154.57 -101.14 146.81 C-100.38 145.28 -99.63 143.74 -98.89 142.21 C-91.9 127.8 -85.04 116.54 -70.19 109.31 C-70.98 108.57 -70.98 108.57 -71.8 107.81 C-79.06 100.82 -82.99 95.05 -83.5 84.81 C-83.35 74.79 -79.04 65.7 -74.96 56.74 C-72.58 51.43 -70.7 46.03 -68.88 40.5 C-65.43 30.15 -60.52 20.8 -55.19 11.31 C-54.53 11.31 -53.87 11.31 -53.19 11.31 C-52.94 10.73 -52.69 10.15 -52.43 9.56 C-48.07 1.69 -39.38 -2.8 -31.19 -5.69 C-20.28 -8.3 -9.24 -6.59 0 0 Z M-46.55 58.46 C-54.19 71.57 -54.19 71.57 -55.19 86.31 C-51.91 95.7 -43.97 100.84 -36.19 106.31 C-34.14 107.79 -32.1 109.27 -30.06 110.75 C-29.19 111.37 -28.32 111.98 -27.43 112.62 C-25.5 114.08 -23.84 115.55 -22.19 117.31 C-19.17 115.95 -16.98 114.38 -14.56 112.12 C-11.59 109.46 -8.56 107.12 -5.25 104.88 C5.77 97.41 5.77 97.41 12.46 86.28 C14.31 73.19 5.99 60.56 -1.56 50.48 C-9.75 39.32 -9.75 39.32 -21.12 32.56 C-32.85 35.43 -40.63 48.87 -46.55 58.46 Z " fill="#FFFFFF" transform="translate(277.1875,185.6875)"/>
<path d="M0 0 C4.09 1.36 5.31 3.43 7.55 7.02 C12.37 16.95 11.4 30.45 11.38 41.25 C11.38 41.97 11.38 42.7 11.38 43.44 C11.38 57.9 9.69 71.79 7 86 C1.42 85.52 -2.26 83.36 -6.88 80.44 C-7.56 80.01 -8.25 79.59 -8.96 79.15 C-10.65 78.11 -12.32 77.06 -14 76 C-13.4 71.75 -12.41 67.75 -11.24 63.63 C-6.57 47.09 -5.66 31.12 -6 14 C-8.49 16.32 -10.3 18.8 -12.19 21.62 C-21.57 35.19 -21.57 35.19 -27 37 C-28.01 38.66 -29.01 40.33 -30 42 C-30.66 42 -31.32 42 -32 42 C-32.37 42.93 -32.37 42.93 -32.75 43.88 C-34.21 46.35 -35.38 46.95 -38 48 C-38.33 47.34 -38.66 46.68 -39 46 C-39.38 46.53 -39.75 47.06 -40.14 47.61 C-43.09 51.69 -45.84 55.06 -50 58 C-50.66 57.01 -51.32 56.02 -52 55 C-52.45 55.54 -52.89 56.09 -53.36 56.64 C-56.6 60.49 -59.39 63.76 -64 66 C-64.33 64.68 -64.66 63.36 -65 62 C-65.76 62.64 -66.52 63.28 -67.3 63.93 C-68.29 64.76 -69.29 65.59 -70.31 66.44 C-71.3 67.26 -72.28 68.08 -73.3 68.93 C-76 71 -76 71 -79 72 C-79 70.35 -79 68.7 -79 67 C-79.51 67.41 -80.02 67.82 -80.54 68.24 C-84.56 71.39 -87.95 73.74 -93 75 C-93 74.01 -93 73.02 -93 72 C-94.1 72.36 -95.19 72.72 -96.32 73.09 C-97.78 73.56 -99.23 74.03 -100.69 74.5 C-101.77 74.86 -101.77 74.86 -102.87 75.22 C-106.69 76.44 -109.93 77.32 -114 77 C-112.1 69.31 -109.01 62.82 -105 56 C-105.99 55.67 -106.98 55.34 -108 55 C-105.72 49.61 -101.84 45.23 -97 42 C-98.49 41.5 -98.49 41.5 -100 41 C-98.56 37.61 -96.8 35.68 -94 33.31 C-93.3 32.71 -92.6 32.11 -91.88 31.49 C-90 30 -90 30 -88 29 C-88.99 28.67 -89.98 28.34 -91 28 C-89.55 24.37 -87.78 22.88 -84.5 20.81 C-83.71 20.3 -82.91 19.79 -82.09 19.27 C-80 18 -80 18 -78 17 C-78 15.68 -78 14.36 -78 13 C-72.44 7.61 -67.08 5.62 -59.41 5.71 C-58.71 5.71 -58.01 5.72 -57.29 5.72 C-55.07 5.74 -52.85 5.77 -50.62 5.81 C-49.11 5.83 -47.6 5.84 -46.08 5.85 C-42.39 5.89 -38.69 5.94 -35 6 C-38.56 10.3 -42.2 14.27 -46.38 18 C-47.33 18.86 -48.29 19.72 -49.28 20.6 C-52.09 23.08 -54.91 25.54 -57.74 28 C-62.91 32.58 -67.94 37.3 -73 42 C-66.26 37.9 -60.24 33.03 -54.16 28.04 C-48.82 23.65 -43.4 19.37 -37.86 15.23 C-35.03 13.11 -35.03 13.11 -32.83 10.86 C-27.13 5.42 -22.07 5.42 -14.54 5.35 C-8.27 5.24 -5.01 3.89 0 0 Z " fill="#FFFFFF" transform="translate(254,384)"/>
<path d="M0 0 C-0.33 1.65 -0.66 3.3 -1 5 C-0.01 4.71 0.98 4.42 2 4.12 C15.01 0.43 15.01 0.43 22 1 C21.34 2.98 20.68 4.96 20 7 C21.46 6.51 21.46 6.51 22.94 6.01 C27.3 4.76 31.43 4.77 35.94 4.88 C36.72 4.88 37.5 4.89 38.3 4.9 C40.2 4.93 42.1 4.96 44 5 C43 7 42 9 41 11 C48.26 11 55.52 11 63 11 C62 15 62 15 60 17 C60.6 17.06 61.19 17.11 61.8 17.17 C64.49 17.42 67.18 17.68 69.88 17.94 C70.81 18.02 71.75 18.11 72.71 18.2 C73.61 18.29 74.51 18.38 75.43 18.46 C76.26 18.54 77.08 18.62 77.94 18.7 C80 19 80 19 82 20 C82 20.66 82 21.32 82 22 C81.01 22.66 80.02 23.32 79 24 C80.79 24.67 80.79 24.67 82.62 25.36 C90.74 28.43 98.56 31.46 106 36 C106 36.66 106 37.32 106 38 C97.09 42.29 88.18 46.58 79 51 C79.99 52.98 79.99 52.98 81 55 C74.16 57.44 67.21 57.62 60 58 C60.5 58.43 60.99 58.87 61.5 59.31 C63 61 63 61 63 64 C60.65 64.17 58.29 64.34 55.94 64.5 C54.63 64.59 53.32 64.69 51.96 64.78 C48.3 64.98 44.67 65.04 41 65 C41.99 65.99 41.99 65.99 43 67 C43 67.99 43 68.98 43 70 C40.29 70.05 37.58 70.09 34.88 70.12 C33.73 70.15 33.73 70.15 32.57 70.18 C27.97 70.22 24.34 69.76 20 68 C20.33 68.6 20.66 69.2 21 69.81 C22 72 22 72 22 75 C13.93 75.47 6.63 73.54 -1 71 C-0.34 71.99 0.32 72.98 1 74 C1 74.99 1 75.98 1 77 C-3.95 76.34 -8.9 75.68 -14 75 C-11.74 63.7 -11.74 63.7 -9 60 C-6.02 58.85 -3.38 58.56 -0.2 58.29 C2.87 58.01 5.29 57.35 8.19 56.38 C13.82 54.71 19.18 54.83 24.99 55.2 C30.23 55.41 33.01 54.38 37 51 C41.45 42.87 41.18 36.51 39.08 27.77 C37.86 24.65 36.58 23.11 34 21 C30.97 19.99 28.75 20.03 25.6 20.17 C15.04 20.58 5.99 18.27 -4 15 C-4.33 13.56 -4.66 12.13 -4.99 10.69 C-5.18 9.89 -5.36 9.09 -5.55 8.27 C-6.04 5.8 -6.16 3.51 -6 1 C-4 0 -4 0 0 0 Z " fill="#FFFFFF" transform="translate(377,320)"/>
<path d="M0 0 C11.51 -0.09 23.02 -0.16 34.53 -0.21 C39.88 -0.23 45.22 -0.26 50.57 -0.3 C55.73 -0.35 60.9 -0.37 66.07 -0.38 C68.03 -0.39 70 -0.4 71.96 -0.42 C81.98 -0.53 90.88 -0.51 100.35 3.09 C104.71 4.59 109.06 4.52 113.62 4.5 C122.3 4.46 122.3 4.46 125.06 6.6 C126.32 9.81 126.4 12.49 126.38 15.94 C126.38 17.14 126.39 18.35 126.4 19.59 C125.73 25.27 125.73 25.27 123 28 C119.67 28.7 116.39 28.65 113 28.62 C107.53 28.62 102.66 28.66 97.46 30.5 C88.53 33.02 79.22 32.37 70.02 32.29 C68 32.29 65.97 32.28 63.95 32.28 C58.65 32.27 53.36 32.24 48.06 32.21 C42.64 32.18 37.23 32.16 31.81 32.15 C21.21 32.11 10.6 32.06 0 32 C0 30.35 0 28.7 0 27 C-0.78 27.01 -1.56 27.02 -2.37 27.04 C-3.38 27.04 -4.39 27.05 -5.44 27.06 C-6.45 27.07 -7.46 27.09 -8.5 27.1 C-11 27 -11 27 -12 26 C-12.1 24.6 -12.13 23.19 -12.13 21.78 C-12.13 20.93 -12.14 20.08 -12.14 19.21 C-12.13 18.31 -12.13 17.42 -12.12 16.5 C-12.13 15.61 -12.13 14.71 -12.14 13.79 C-12.14 12.94 -12.13 12.09 -12.13 11.22 C-12.13 10.43 -12.13 9.65 -12.13 8.84 C-12 7 -12 7 -11 6 C-9.15 5.93 -7.29 5.92 -5.44 5.94 C-4.43 5.95 -3.41 5.96 -2.37 5.96 C-1.2 5.98 -1.2 5.98 0 6 C0 4.02 0 2.04 0 0 Z M5 6 C5 12.93 5 19.86 5 27 C7.31 27 9.62 27 12 27 C12 20.07 12 13.14 12 6 C9.69 6 7.38 6 5 6 Z M18 6 C18 12.93 18 19.86 18 27 C18.66 26.67 19.32 26.34 20 26 C20 19.4 20 12.8 20 6 C19.34 6 18.68 6 18 6 Z M25 6 C25 6.66 25 7.32 25 8 C29.29 8 33.58 8 38 8 C38 9.32 38 10.64 38 12 C46.58 12 55.16 12 64 12 C64 10.02 64 8.04 64 6 C51.13 6 38.26 6 25 6 Z M69 6 C69 12.93 69 19.86 69 27 C75.27 27 81.54 27 88 27 C86.51 23.54 86.51 23.54 85 20 C84 14.42 85.41 11.18 88 6 C81.73 6 75.46 6 69 6 Z M-7 11 C-7 14.63 -7 18.26 -7 22 C-6.67 22 -6.34 22 -6 22 C-6 18.37 -6 14.74 -6 11 C-6.33 11 -6.66 11 -7 11 Z M-1 11 C-1 14.63 -1 18.26 -1 22 C-0.67 22 -0.34 22 0 22 C0 18.37 0 14.74 0 11 C-0.33 11 -0.66 11 -1 11 Z M25 13 C25 14.98 25 16.96 25 19 C27.97 19 30.94 19 34 19 C33.67 17.02 33.34 15.04 33 13 C30.36 13 27.72 13 25 13 Z M38 20 C37.67 21.32 37.34 22.64 37 24 C31.06 24.5 31.06 24.5 25 25 C25 25.66 25 26.32 25 27 C37.87 27 50.74 27 64 27 C64 24.69 64 22.38 64 20 C55.42 20 46.84 20 38 20 Z " fill="#FFFFFF" transform="translate(285,341)"/>
<path d="M0 0 C2.94 1.12 2.94 1.12 3.94 2.12 C4.06 5.12 4.06 5.12 3.94 8.12 C3.61 8.45 3.28 8.79 2.94 9.12 C1.04 23.06 11.75 35.15 18.93 46.19 C26.07 57.62 30.55 70.62 30.94 84.12 C25.99 84.12 21.04 84.12 15.94 84.12 C15.67 82.79 15.4 81.46 15.12 80.09 C11.7 64.01 5.77 51.16 -3 37.35 C-5.66 33.1 -7.42 28.86 -9.06 24.12 C-9.68 24.85 -9.68 24.85 -10.32 25.58 C-14.14 30.01 -18.08 34.33 -22.06 38.62 C-25.89 42.75 -29.67 46.91 -33.36 51.17 C-36.15 54.37 -39.02 57.52 -41.87 60.68 C-43.83 62.87 -45.76 65.08 -47.69 67.31 C-50.43 70.47 -53.33 73.41 -56.3 76.34 C-59.91 80 -63.31 83.88 -66.47 87.93 C-69.58 91.9 -69.58 91.9 -72.06 93.06 C-74.52 93.14 -76.68 92.72 -79.06 92.12 C-77.71 89.16 -76.18 86.92 -74 84.5 C-73.38 83.81 -72.76 83.11 -72.12 82.4 C-71.44 81.65 -70.76 80.9 -70.06 80.12 C-69.33 79.31 -68.6 78.5 -67.85 77.66 C-66.32 75.96 -64.78 74.26 -63.25 72.56 C-61.34 70.43 -59.44 68.28 -57.56 66.12 C-53.45 61.41 -49.26 56.77 -45.06 52.12 C-43.56 50.46 -42.06 48.79 -40.56 47.12 C-39.82 46.3 -39.07 45.47 -38.3 44.61 C-36.84 42.99 -35.38 41.36 -33.92 39.73 C-30.63 36.06 -27.32 32.4 -23.97 28.78 C-23.44 28.21 -22.9 27.63 -22.35 27.04 C-21.31 25.92 -20.27 24.8 -19.22 23.68 C-13.07 17.52 -13.07 17.52 -10.06 9.62 C-9.3 5.53 -8.07 3.13 -5.06 0.12 C-3.06 -0.88 -3.06 -0.88 0 0 Z " fill="#FFFFFF" transform="translate(335.0625,250.875)"/>
<path d="M0 0 C0.66 0 1.32 0 2 0 C3.44 1.73 3.44 1.73 5.13 4.19 C5.77 5.1 6.4 6.02 7.05 6.96 C8.08 8.46 8.08 8.46 9.12 10 C9.83 11.03 10.54 12.05 11.27 13.11 C17.09 21.6 22.82 30.16 28.51 38.75 C33.5 46.29 38.54 53.79 44 61 C44.36 60.43 44.73 59.86 45.1 59.28 C50 51.75 55.13 45.65 61.93 39.79 C69 33.67 74.05 27.28 78.92 19.37 C79.61 18.26 80.29 17.14 81 16 C81.59 14.88 82.18 13.75 82.78 12.59 C85 10 85 10 88.67 9.41 C90.03 9.45 91.39 9.52 92.75 9.62 C93.45 9.65 94.14 9.68 94.86 9.71 C96.58 9.78 98.29 9.89 100 10 C95.21 27.18 82.8 40.32 69 51 C58.22 59.74 53.51 68.08 52 82 C49.31 83.19 49.31 83.19 46 84 C43.06 82.69 41.45 81.91 40 79 C39.89 77.46 39.81 75.91 39.74 74.37 C39.22 68.82 37.38 65.54 34.12 61.12 C33.04 59.57 31.95 58.01 30.86 56.46 C30.25 55.6 29.64 54.75 29.02 53.87 C25.48 48.84 22.06 43.74 18.62 38.66 C16.58 35.63 14.52 32.61 12.47 29.59 C10.98 27.39 9.49 25.2 8 23 C7.4 22.12 6.8 21.24 6.19 20.33 C4.75 18.2 3.31 16.07 1.88 13.94 C1.48 13.36 1.08 12.77 0.68 12.17 C-0.93 9.78 -2.08 7.76 -3 5 C-1.69 2.31 -1.69 2.31 0 0 Z " fill="#FFFFFF" transform="translate(261,370)"/>
<path d="M0 0 C2.52 0.97 4.13 2.38 6.13 4.18 C6.82 4.8 7.52 5.42 8.23 6.06 C9.94 7.75 9.94 7.75 10.94 9.75 C9.95 10.41 8.96 11.07 7.94 11.75 C8.58 12.36 9.22 12.98 9.87 13.61 C10.7 14.42 11.53 15.23 12.38 16.06 C13.2 16.86 14.03 17.66 14.87 18.48 C16.94 20.75 16.94 20.75 17.94 23.75 C16.62 23.75 15.3 23.75 13.94 23.75 C14.33 24.35 14.71 24.96 15.11 25.58 C23.94 39.79 23.94 39.79 23.94 45.75 C16.45 45.25 9.98 43.31 2.94 40.75 C2.94 41.74 2.94 42.73 2.94 43.75 C-1.28 43.21 -3.6 41.87 -6.87 39.18 C-8.06 38.22 -8.06 38.22 -9.27 37.24 C-9.86 36.75 -10.45 36.26 -11.06 35.75 C-11.55 38.22 -11.55 38.22 -12.06 40.75 C-16.15 38.53 -19.13 35.89 -22.37 32.56 C-23.26 31.66 -24.14 30.76 -25.05 29.83 C-25.71 29.14 -26.38 28.45 -27.06 27.75 C-25.25 21.8 -22.74 17.86 -17.8 13.96 C-15.7 12.27 -13.8 10.57 -11.87 8.7 C-11.32 8.16 -10.76 7.63 -10.19 7.08 C-9.05 5.97 -7.92 4.85 -6.79 3.73 C-2.56 -0.31 -2.56 -0.31 0 0 Z " fill="#FFFFFF" transform="translate(348.0595703125,415.25341796875)"/>
<path d="M0 0 C4.62 0 9.24 0 14 0 C13.67 1.32 13.34 2.64 13 4 C8.59 5.47 5.52 6.37 1 5 C0.67 3.35 0.34 1.7 0 0 Z " fill="#FFFFFF" transform="translate(262,505)"/>
<path d="M0 0 C4.62 0 9.24 0 14 0 C14 1.65 14 3.3 14 5 C10.73 6.07 8.57 5.89 5.25 5.06 C4.45 4.87 3.65 4.67 2.83 4.47 C1.92 4.24 1.92 4.24 1 4 C0.67 2.68 0.34 1.36 0 0 Z " fill="#FFFFFF" transform="translate(238,505)"/>
<path d="M0 0 C2.07 0.7 4.11 1.5 6.14 2.33 C2.44 4.74 -0.49 4.4 -4.8 4.02 C-6.6 3.87 -6.6 3.87 -8.45 3.71 C-14.17 3.07 -14.17 3.07 -16.86 2.33 C-17.19 1.67 -17.52 1.01 -17.86 0.33 C-12.86 -2.17 -5.3 -1.24 0 0 Z " fill="#FFFFFF" transform="translate(159.859375,504.671875)"/>
<path d="M0 0 C1.32 0 2.64 0 4 0 C4 0.66 4 1.32 4 2 C2.68 2 1.36 2 0 2 C0 1.34 0 0.68 0 0 Z " fill="#FFFFFF" transform="translate(179,505)"/>
<path d="" fill="#FFFFFF" transform="translate(0,0)"/>
</svg>
